<?xml version="1.0" encoding="utf-8"?>
<!-- Generator: Adobe Illustrator 16.0.0, SVG Export Plug-In . SVG Version: 6.00 Build 0)  -->
<!DOCTYPE svg PUBLIC "-//W3C//DTD SVG 1.1//EN" "http://www.w3.org/Graphics/SVG/1.1/DTD/svg11.dtd">
<svg version="1.1" id="Layer_1" xmlns="http://www.w3.org/2000/svg" xmlns:xlink="http://www.w3.org/1999/xlink" x="0px" y="0px"
	 width="1000px" height="200px" viewBox="0 0 1000 200" enable-background="new 0 0 1000 200" xml:space="preserve">
<g>
	<path fill="#EAEAEA" d="M1000,177.828V84.213h-3.571v-20.94h-6.249v-8.254l-3.063-3.32l-5.866,0.546v9.796h-8.928V54.65h-8.852
		l-3.208,4.535l-2.005,2.856h-3.793v67.747h-2.68v-0.281c-4.463-3.627-8.033-6.049-10.712-6.793V108.75l-5.358-9.972V80.518h-6.25
		v-6.159h-4.464v-4.928h-4.466v9.854h-4.463v22.172H903.57V85.445h-5.355v32.026h-12.5V58.346h-15.781l-6.019-8.623h-12.128v7.39
		h-8.93v43.113h-7.142V80.518h-8.036v22.172h-12.5v3.696h-20.549l-0.802,0.475l-1.864-2.551V75.591h-8.035v-6.16l-7.944-6.158
		h-14.378v9.854h-8.929v66.516h-3.572v-33.257h-12.499v36.939l-8.034,1.131v-10.972H715.77l-4.164,13.275l-5.354,0.85v-37.529h-2.68
		v-4.928H700v-8.622h-0.893V85.445h-0.859l-0.926,4.744v6.341H697.2l-2.557,7.147v1.475h-2.629c0.582,0,0.843-1.258,0.843-2.054
		v-1.156c0-0.796-0.261-1.716-0.843-1.716h-0.05v-3.696h0.05c0.582,0,0.843-0.537,0.843-1.331v-1.157
		c0-0.794-0.261-1.208-0.843-1.208h-0.05l-46.137,0.045c-0.271,0.263-0.293,0.675-0.293,1.163V95.2c0,0.794,0.243,1.331,0.822,1.331
		h0.072v3.696h-0.072c-0.579,0-0.822,0.92-0.822,1.716v1.156c0,0.795,0.243,2.054,0.822,2.054h0.072v3.696h-0.072
		c-0.579,0-0.822,0.202-0.822,0.996v1.153c0,0.798,0.243,1.547,0.822,1.547h0.072v3.695h-0.072c-0.579,0-0.822,0.709-0.822,1.503
		v1.158c0,0.791,0.243,1.035,0.822,1.035h0.072v3.695h-0.072c-0.272,0-0.526,1.231-0.714,1.231h-1.893V97.763h-29.466v12.709
		l-3.57-0.273v-9.972H596.43v8.897l-11.606-0.835V90.372h-26.786v6.159H537.5v6.159h-1.785v-4.927h-1.785v1.232h-1.785v-1.232
		h-2.682v-6.16h-2.302l-2.443-2.599l-2.933,2.599h-9.284v76.371h-8.036v-3.696h-3.354h-15.396v-1.232h-3.572v-1.232h-7.142v-9.853
		h-19.645v7.39h-0.893v-1.231h-1.785v-7.391h-0.893v7.391l0,0l0,0H450v1.231h-8.035v-4.927h-8.928v4.927l0,0v-1.231h-4.465v1.231
		h-8.928v-12.317h-16.072v-2.463h0.891v-6.16h-3.568v-1.883v-5.507H400v4.927h-2.678v2.464h-1.786v6.16h1.786v2.463h-14.284v-3.696
		h-6.252v3.696h-0.892v-2.463h-1.788v-2.464h-2.678v4.927h-16.965v30.794h-8.929v6.159h-11.606V172.9H325v-23.404h-3.572v-3.694
		h-0.891v-2.464l0,0v-3.695h-0.895v3.695h-0.891v2.464h-5.359v3.694h-1.785v-7.39h-1.785v-2.464h-1.787l0,0h-1.785l0,0h-1.785
		v-3.695h-0.892v-0.227l-0.895,0.05v-2.286l0,0v2.348l-1.786,0.325v-0.333l-1.456-0.625l-2.113,0.625v1.355h-1.788v1.232h-0.893
		v-1.232h-0.891v1.232h-0.014h0.014v3.695h-0.895v1.231h0.895l0,0h-0.895v1.233h0.895v1.231h-0.895l0,0h0.895v1.231h-0.895v1.232
		h0.895l0,0h-0.895v1.231l0,0v-4.926h-0.893v-0.077l-1.251-1.156h0.358v-1.231h-1.784V98.083l-0.23-0.32h0.017
		c0.504,0,0.935-0.583,1.009-1.525c0.076-0.939-1.44-2.083-2.067-2.016c-0.635,0.072-0.732,0.733-0.732,0.733l0.505-0.102
		l0.024,0.415l-2.008,0.285l-0.592-0.402l-0.008-0.993l-4.069-3.421l-5.157,0.419l-0.631,0.551c-2.19,0.084-3.001,1.892-3.001,1.892
		l0.937-0.081l-0.654,0.577l-2.429-0.081l-1.799,1.674c-0.368,0.216-0.652,0.511-0.821,0.799l-0.004,0.042h0.001
		c-0.116,0-0.179,0.369-0.179,0.588c0,0.402,0.212,0.756,0.575,1.071l-1.088,0.844c-0.357-3.161-1.705-5.674-4.386-6.25v-1.272
		c0-0.404-0.005-1.14-0.299-1.14h-0.594v-2.463l0,0v2.463h-0.162c-0.293,0-0.732,0.736-0.732,1.14v1.249
		c-1.785,0.542-3.817,3.237-4.092,6.604l-3.049,1.092v1.286l-2.598,0.137l-3.653,2.651v37.576h-1.785v2.464h-0.892v16.012h-1.787
		V87.858l-1.511-0.742l0.888-0.304l0.623,0.246v-0.526l-3.981-2.019l-2.038-0.28l-2.015-1.243v-2.168l-3.271-1.858
		c-0.723-1.268-2.125-2.107-3.585-2.107c-0.365,0-0.289,0.054-1.18,0.153v-2.652l0,0v2.859c-0.895,0.316-1.478,0.836-1.904,0.836
		h-0.151l-1.517,2.562v2.743l-3.57,1.784v3.998h-0.895v2.463h-1.786v4.195l-0.657,0.518l-0.012,1.495l0.669-0.584v1.296
		l-1.339,1.554l0.619,0.592l0.72-0.069v0.859h-1.786v40.648h-1.784v1.231H212.5v1.233h-0.892v1.264l-2.68,0.991v5.135h-1.786v-6.159
		l0,0v6.159h-1.785v-4.927l0,0v-1.231l0,0l0,0h-2.678v-1.231l0,0v-2.464l0,0l0,0h-0.895v3.696h-1.783v-1.231h-2.68v-8.624h-1.785
		v-3.695h-6.734l-3.09-1.974v-0.489h0.895l0,0h-0.895v-4.927h0.895l0,0h-0.895v-3.695h0.895v-1.231h-0.895v-3.696h0.895v-1.232
		h-0.895v-3.695h0.895v-1.231h-0.895v-3.695h0.895v-1.233h-0.895v-3.695h0.895v-1.231h-0.895V70.663l0,0v-7.39h-3.568l0,0l0,0
		v-0.691c0,0-1.314-1.6-1.872-2.017c-0.261,0.162-0.487,0.256-0.729,0.428c-1.13,0.793-2.02,2.28-2.654,2.28h-0.104l0,0h-2.677
		v1.232h-0.893v2.463h-0.894v3.695h-0.048c-1.202,1.232-0.845,5.581,0.048,5.768v2.296c-0.893,0.345-0.893,2.024-0.893,3.211v68.791
		l-1.785,0.238v2.226h-0.895v-3.696h-2.677v-3.694h-0.896l0,0h-2.677l0,0h-0.771l-1.016,1.265v2.43l0,0v-1.231h-0.893v-6.159h-1.785
		v-1.231h-2.68v-5.121l-2.678-0.486v-0.904c0-0.883-0.767-1.472-1.398-1.605l-4.854-0.968v-0.771h0.895v-1.533l-4.465-0.426v-0.505
		h-0.892v-2.463h-1.787v-11.958l-0.875-1.819l-10.516,2.759l-1.109,1.257v33.164h-0.893v1.232h-0.892v-11.424l-9.822,3.723v-0.921
		l0,0l0,0l0,0v-1.231l0,0v-1.232l0,0l0,0l0,0v-1.231l0,0l0,0l0,0v-1.232l0,0l0,0l0,0v-1.232l0,0l0,0l0,0v-1.231l0,0v-1.232l0,0l0,0
		l0,0v-1.232l0,0l0,0l0,0v-1.231l0,0v-1.232l0,0l0,0l0,0v-1.232l0,0l0,0l0,0v-1.232l0,0l0,0l0,0v-1.231l0,0v-1.232l0,0l0,0l0,0
		v-1.231l0,0l0,0l0,0v-1.231l0,0v-1.232l0,0v-2.363c0-3.369-17.857-2.291-17.857-0.316v2.679l0,0v1.232l0,0v1.231l0,0l0,0l0,0v1.231
		l0,0l0,0l0,0v1.232l0,0v1.231l0,0l0,0l0,0v1.232l0,0l0,0l0,0v1.232l0,0l0,0l0,0v1.232l0,0v1.231l0,0l0,0l0,0v1.232l0,0l0,0l0,0
		v1.232l0,0v1.231l0,0l0,0l0,0v1.232l0,0l0,0l0,0v1.232l0,0l0,0l0,0v1.231l0,0l0,0l0,0v1.232l0,0v1.231l0,0l0,0l0,0v1.231l0,0v1.233
		l0,0l0,0l0,0v1.231l0,0l0,0l0,0v1.231l0,0l0,0l0,0v1.232l0,0l0,0l0,0v1.231l0,0v1.232l0,0l0,0l0,0v1.232l0,0l0,0l0,0v1.232l0,0
		v1.231l0,0l0,0l0,0v1.232l0,0l0,0l0,0v1.231l0,0l0,0l0,0v1.232l0,0v1.231l0,0l0,0h-3.57v-23.404H93.75v-2.463l0,0l0,0h-0.894
		v-1.232l0,0v1.232h-7.143v-6.328l-0.387-1.063h-0.505v-3.695h0.681c0.166,0,0.211-0.268,0.211-0.499v-20.427
		c0-1.271,0.111-1.454-0.832-1.576c-1.218-0.16-2.739-0.262-3.632-0.312v-0.589h0.204c0.104,0,0.188,0.142,0.188-0.001
		c0-0.141-0.084,0.001-0.188,0.001H81.25v-1.232h0.204c0.104,0,0.188-0.47,0.188-0.615c0-0.146-0.084-0.617-0.188-0.617H81.25
		v-1.231h0.204c0.104,0,0.188-0.475,0.188-0.614c0-0.147-0.084-0.618-0.188-0.618H81.25v-1.232h0.204
		c0.104,0,0.188,0.146,0.188,0.003c0-0.145-0.084-0.003-0.188-0.003H81.25V82.044c0-0.25-0.267-0.455-0.447-0.455
		c-0.18,0-0.443,0.205-0.443,0.455v10.791h0.286h-0.15c-0.103,0-0.187-0.142-0.187,0.003c0,0.142,0.084-0.003,0.187-0.003h0.15
		h-0.286v1.232h0.286h-0.15c-0.103,0-0.187,0.471-0.187,0.618c0,0.139,0.084,0.614,0.187,0.614h0.15h-0.286v0.323l0.136,0.017
		l-0.727,1.126l-0.518,0.777l-1.44,2.045c-0.744,0.03-1.478,0.082-2.219,0.144c-0.534,0.045-1.024,0.103-1.556,0.169
		c-0.734,0.087-0.821,0.061-0.821,1.112v4.943v1.591l-1.785-0.007v0.866l0.894,0.927v0.746h0.892v-0.061l-1.785-0.008v0.867
		l0.894,0.925v0.74h0.892v-0.053l-1.785-0.005v0.865l0.894,0.928v0.729h0.892v-0.044l-1.785-0.008v0.865l0.894,0.926v0.725h0.892
		v-0.039l-1.785-0.004v0.866l0.894,0.926v0.715h0.892v-0.03l-1.785-0.006v0.867l0.894,0.922v0.711h0.892v-0.025l-1.785-0.005v0.865
		l0.894,0.927v0.701h0.892v11.086h-8.037v2.464h-0.893v20.94h-2.678v-1.231l0,0l0,0h-0.895v-1.062l-1.701-2.634h-0.977v2.463l0,0
		l0,0h-0.892v1.232H56.25v3.694h-2.678v2.464h-0.895v3.696h-0.892v1.231l0,0l0,0h-0.894l0,0l0,0l0,0l0,0v-1.231l0,0l0,0l0,0l0,0l0,0
		l0,0l0,0v-1.232l0,0l0,0l0,0l0,0l0,0l0,0l0,0v-1.232l0,0l0,0l0,0l0,0l0,0l0,0l0,0v-1.232l0,0l0,0l0,0l0,0l0,0l0,0l0,0v-1.232l0,0
		l0,0l0,0l0,0l0,0l0,0l0,0l0,0h0.894v-1.232h-0.894l0,0l0,0l0,0l0,0l0,0l0,0v-1.231l0,0l0,0l0,0l0,0h0.894l0,0h-0.894l0,0l0,0
		v-1.232l0,0l0,0l0,0l0,0l0,0v-1.231l0,0l0,0l0,0l0,0l0,0l0,0l0,0v-1.232l0,0l0,0l0,0l0,0l0,0l0,0l0,0v-1.231l0,0l0,0l0,0l0,0l0,0
		l0,0l0,0v-1.232l0,0l0,0l0,0l0,0l0,0l0,0l0,0v-1.231l0,0l0,0l0,0l0,0l0,0v-4.927h-0.892v-1.232h-1.786v-0.805l-0.686-1.658h-0.207
		v1.231h-1.333l-0.729-1.231h-0.618v2.463H43.75v1.232h-0.893v-12.931c0-0.522-0.674-0.836-1.042-0.952
		c-0.132-0.042,0.149-0.081-0.743-0.115v-0.602c0-0.681,0-1.292,0-1.324v-2.227l-1.785,0.138v-2.022c0-0.27,0.036-0.539-0.156-0.488
		l-5.047,1.328c-0.192,0.047-0.155,0.219-0.155,0.486v1.55l-0.892,0.123v1.894c-0.893,0.109-0.893,0.627-0.893,1.309v0.722
		c0,0.066-0.672,0.134-0.925,0.202c-0.374,0.101-0.862,0.428-0.862,0.956v34.126H28.57l0,0l0,0v-1.232h-1.785v1.232l0,0l0,0l0,0
		v-6.159l0,0v-1.232h-0.891v-2.463h-0.893l0,0l0,0v-1.232l0,0l0,0H22.32l0,0h-1.785v1.232l0,0l0,0l0,0v2.463h-2.677v1.232H15.18
		v12.318h-1.786v8.622H0V200h75.603h3.687h0.554h0.803h98.922h114.171h52.158h0.394h154.821H1000V177.828L1000,177.828z
		 M76.774,101.328c0,0-0.548-0.011-1.172-0.018c-0.824-0.004-1.777,0.006-1.807,0.086c0,0,0.17-0.483,1.807-0.717
		c0.469-0.064,1.057-0.11,1.801-0.117C76.976,101.293,76.774,101.328,76.774,101.328z M79.175,99.554
		c-0.203,0.001-0.405,0.004-0.607,0.013l0.722-1.094l0.554-0.837l0.168-0.252l-0.168,0.435l-0.554,1.439L79.175,99.554z
		 M80.661,98.881h-0.016h-0.15c-0.103,0-0.187,0.117-0.187,0.259c0,0.143,0.084,0.262,0.187,0.262h0.15h0.016v0.163l-0.016-0.002
		c-0.269-0.007-0.535-0.008-0.803-0.01h-0.167l0.167-0.382l0.803-1.839l0.016-0.031V98.881z M80.661,96.451h-0.016l-0.014-0.005
		l0.014-0.019l0.016-0.023V96.451z M293.843,148.526h-0.104h-0.109v-0.67h0.109h0.104V148.526z M293.843,146.93h-0.104h-0.109v-0.67
		h0.109h0.104V146.93z M293.843,145.33h-0.104h-0.109v-0.669h0.109h0.104V145.33z M293.843,143.73h-0.104h-0.109v-0.668h0.109h0.104
		V143.73z M293.843,141.915h-0.104h-0.109v-0.669h0.109h0.104V141.915z M501.258,171.067l-0.146-0.025l-0.143-0.024h0.143h0.146
		V171.067z M768.75,116.239h-2.677v-7.39h2.677V116.239z M968.75,106.386v-7.391h1.787v7.391H968.75z M989.285,144.571v-7.392h1.787
		v7.392H989.285z M991.072,133.484h-1.787v-7.391h1.787V133.484z M991.072,98.995v6.158h-2.68v-6.158H991.072z M987.502,73.127
		h2.678v7.391h-2.678V73.127z M985.716,126.093h1.786v7.391h-1.786V126.093z M985.716,137.179h1.786v7.392h-1.786V137.179z
		 M982.145,126.093h1.785v7.391h-1.785V126.093z M982.145,137.179h1.785v7.392h-1.785V137.179z M978.573,126.093h1.785v7.391h-1.785
		V126.093z M978.573,137.179h1.785v7.392h-1.785V137.179z M969.645,68.2h2.678v7.392h-2.678V68.2z M969.645,79.286h2.678v7.391
		h-2.678V79.286z M966.071,68.2h2.679v7.392h-2.679V68.2z M966.071,79.286h2.679v7.391h-2.679V79.286z M962.501,68.2h1.784v7.392
		h-1.784V68.2z M962.501,79.286h1.784v7.391h-1.784V79.286z M958.93,68.2h1.785v7.392h-1.785V68.2z M958.93,79.286h1.785v7.391
		h-1.785V79.286z M929.465,86.677h1.787v7.391h-1.787V86.677z M921.43,86.677h2.679v7.391h-2.679V86.677z M918.752,131.021h1.783
		v6.093c0,0.548-0.555,1.298-0.908,1.298h-0.875V131.021z M915.18,119.935h1.785v7.39h-1.785V119.935z M915.18,131.021h1.785v7.391
		h-1.785V131.021z M910.716,119.935h2.675v7.39h-2.675V119.935z M907.144,106.386h2.679v7.39h-2.679V106.386z M907.144,119.935
		h2.679v7.39h-2.679V119.935z M907.144,131.021h2.679v7.391h-2.679V131.021z M881.252,63.273h1.785v7.39h-1.785V63.273z
		 M879.465,107.617h2.678v7.39h-2.678V107.617z M876.786,63.273h2.679v7.39h-2.679V63.273z M875.894,91.603h-1.786v-7.39h1.786
		V91.603z M873.214,63.273h2.68v7.39h-2.68V63.273z M869.644,63.273h1.786v7.39h-1.786V63.273z M860.715,91.603h2.678v7.392h-2.678
		V91.603z M860.715,107.617h2.678v7.39h-2.678V107.617z M850.893,127.325v7.392h-1.785v-7.392H850.893z M850.002,115.007v-7.39
		h1.785v7.39H850.002z M857.145,91.603h2.678v7.392h-2.678V91.603z M853.572,91.603h1.784v7.392h-1.784V91.603z M853.572,107.617
		h1.784v7.39h-1.784V107.617z M851.787,91.603v7.392h-1.785v-7.392H851.787z M848.215,62.042h2.678v7.39h-2.678V62.042z
		 M832.143,90.372h1.787v7.391h-1.787V90.372z M820.537,108.849h2.678v7.39h-2.678V108.849z M820.537,122.398h2.678v7.39h-2.678
		V122.398z M785.715,82.981h1.786v7.39h-1.786V82.981z M767.858,78.054h2.678v7.391h-2.678V78.054z M767.858,89.14h2.678v7.391
		h-2.678V89.14z M764.286,78.054h1.787v7.391h-1.787V78.054z M764.286,89.14h1.787v7.391h-1.787V89.14z M760.715,78.054h1.786v7.391
		h-1.786V78.054z M760.715,89.14h1.786v7.391h-1.786V89.14z M757.143,78.054h1.785v7.391h-1.785V78.054z M757.143,89.14h1.785v7.391
		h-1.785V89.14z M757.143,128.557h1.785v7.391h-1.785V128.557z M744.645,127.325h1.785v7.392h-1.785V127.325z M741.072,115.007
		h1.787v7.392h-1.787V115.007z M725,138.411v6.607l-2.678,0.3v-6.908H725z M718.752,138.411h1.785v7.132l-1.785,0.301V138.411z"/>
</g>
</svg>
