<?xml version="1.0" encoding="utf-8"?>
<!-- Generator: Adobe Illustrator 16.0.0, SVG Export Plug-In . SVG Version: 6.00 Build 0)  -->
<!DOCTYPE svg PUBLIC "-//W3C//DTD SVG 1.1//EN" "http://www.w3.org/Graphics/SVG/1.1/DTD/svg11.dtd">
<svg version="1.1" id="Tower_Crane_2" xmlns="http://www.w3.org/2000/svg" xmlns:xlink="http://www.w3.org/1999/xlink" x="0px"
	 y="0px" width="74.26px" height="287.288px" viewBox="-556.368 336.219 74.26 287.288"
	 enable-background="new -556.368 336.219 74.26 287.288" xml:space="preserve">
<path fill="#821A17" d="M-500.163,384.079l-2.533-3.086c1.039-0.251,1.876-1.222,1.981-1.347l-1.028-0.857
	c-0.242,0.291-0.938,0.926-1.431,0.926c-1.197,0-1.359-0.645-1.359-1.274c0-1.241,0.517-1.607,1.647-2.409l0.1-0.072
	c0.177-0.125,0.281-0.328,0.281-0.545v-2.224h-0.334v-8.844h3.63l-1.945-2.917h-7.069l-17.273-6.855l-0.255-0.825h-1.167
	l-0.295,1.083l-8.621,6.598h-1.583l-2.528,2.917h10.208v2.709h1.361v28.499h4.277v-28.499h1.167v-2.709h19.423v8.844h-0.334v1.878
	c-1.147,0.819-2.028,1.536-2.028,3.372c0,1.409,0.749,2.327,2.035,2.556l-2.582,3.083h-1.542v2.236h9.431v-2.236H-500.163z
	 M-529.738,359.096v2.334h-4.628l6.765-5.178l-0.775,2.844H-529.738z M-524.294,363.019h-1.944v-2.4h1.944V363.019z M-524.1,359.096
	l-1.06-3.428l14.516,5.762h-12.29v-2.334H-524.1z M-503.575,381.031c0.13,0.014,0.262,0.022,0.4,0.022
	c0.077,0,0.153-0.006,0.228-0.015l2.496,3.04h-5.676L-503.575,381.031z"/>
<path fill="#821A17" d="M-519.238,429.291c-6.991,0-12.658,5.668-12.658,12.659c0,0.15,0.004,0.303,0.011,0.456
	c0.048,1.33,0.298,2.607,0.725,3.802c2.701,8.877,11.923,20.457,11.923,20.457s9.222-11.579,11.923-20.456
	c0.427-1.195,0.678-2.473,0.725-3.803c0.008-0.153,0.012-0.306,0.012-0.456C-506.579,434.959-512.247,429.291-519.238,429.291z
	 M-519.238,448.149c-3.424,0-6.199-2.775-6.199-6.199s2.775-6.2,6.199-6.2c3.425,0,6.2,2.776,6.2,6.2
	S-515.813,448.149-519.238,448.149z"/>
<g id="Your_Icon">
	<path fill="#821A17" d="M-515.989,521.43c0,0.825-0.671,1.495-1.496,1.495h-3.505c-0.825,0-1.496-0.67-1.496-1.495v-1.357
		l-14.407-1.801v12.646c0,0.353,0.289,0.642,0.642,0.642h12.767h8.82h12.44c0.354,0,0.642-0.289,0.642-0.642v-12.646l-14.407,1.809
		L-515.989,521.43L-515.989,521.43z"/>
	<path fill="#821A17" d="M-501.073,507.734h-12.54v-0.495v-0.495v-1.567c0-0.392,0-1.032,0-1.425v-0.058
		c0-0.393-0.32-0.713-0.713-0.713h-0.058c-0.392,0-1.033,0-1.426,0h-6.856c-0.393,0-1.034,0-1.426,0h-0.058
		c-0.393,0-0.713,0.32-0.713,0.713v0.058c0,0.392,0,1.033,0,1.425v1.567v0.495v0.495h-12.724c-0.031,0.015-0.091,0.075-0.091,0.146
		v9.174c0,0.08,0.08,0.147,0.175,0.147c0.021,0,0.042,0,0.062,0.003l0.547,0.068l14.407,1.801v-1.149
		c0-0.679,0.453-1.252,1.072-1.435l-0.3-8.261l-0.018-0.495h-1.447v-0.495v-0.495v-1.367c0-0.391,0.32-0.712,0.713-0.712h6.456
		c0.393,0,0.713,0.321,0.713,0.712v1.367v0.495v0.495h-1.447l-0.018,0.495l-0.301,8.261c0.62,0.183,1.073,0.756,1.073,1.435v1.157
		l14.407-1.809l0.546-0.067c0.021-0.004,0.042-0.004,0.062-0.004c0.094,0,0.175-0.067,0.175-0.147v-9.174
		C-500.799,507.785-500.938,507.734-501.073,507.734z"/>
	<path fill="#821A17" d="M-520.723,508.229l0.299,8.199h2.373l0.298-8.199l0.019-0.495l0.018-0.495l0.019-0.49
		c0-0.002-0.001-0.003-0.001-0.005c-0.006-0.112-0.104-0.206-0.217-0.206h-2.643c-0.114,0-0.211,0.094-0.217,0.206
		c0,0.002-0.001,0.003-0.001,0.005l0.019,0.49l0.018,0.495L-520.723,508.229z"/>
	<path fill="#821A17" d="M-520.877,517.617h-0.05h-0.063c-0.167,0-0.308,0.141-0.308,0.308v0.119v1.138v0.495v0.495v1.258
		c0,0.167,0.141,0.308,0.308,0.308h3.505c0.166,0,0.308-0.141,0.308-0.308v-1.258v-0.495v-0.495v-1.137v-0.12
		c0-0.167-0.142-0.308-0.308-0.308h-0.063h-0.05h-0.05h-0.446h-2.287h-0.445H-520.877z"/>
</g>
<g id="Your_Icon_1_">
	<path fill="#821A17" d="M-536.786,608.5h0.821h4.653h21.879h7.742l-5.475-5.475l-24.146-24.146l-5.476-5.475v7.742V608.5z
		 M-509.341,606.316c0-0.133,0.044-0.24,0.178-0.24s0.178,0.107,0.178,0.24v1.471h-0.355V606.316z M-511.479,607.003
		c0-0.089,0.089-0.161,0.178-0.161s0.179,0.072,0.179,0.161v0.784h-0.356V607.003z M-513.618,606.316c0-0.133,0.045-0.24,0.178-0.24
		c0.134,0,0.179,0.107,0.179,0.24v1.471h-0.356V606.316z M-515.757,607.003c0-0.089,0.089-0.161,0.178-0.161
		c0.09,0,0.179,0.072,0.179,0.161v0.784h-0.356V607.003z M-518.252,606.316c0-0.133,0.224-0.24,0.356-0.24
		c0.134,0,0.356,0.107,0.356,0.24v1.471h-0.713V606.316z M-520.391,607.003c0-0.089,0.09-0.161,0.179-0.161s0.178,0.072,0.178,0.161
		v0.784h-0.356V607.003z M-522.528,606.316c0-0.133,0.044-0.24,0.178-0.24s0.178,0.107,0.178,0.24v1.471h-0.355V606.316z
		 M-524.667,607.003c0-0.089,0.089-0.161,0.178-0.161s0.178,0.072,0.178,0.161v0.784h-0.355V607.003z M-527.162,606.316
		c0-0.133,0.224-0.24,0.356-0.24c0.134,0,0.356,0.107,0.356,0.24v1.471h-0.713V606.316z M-529.301,607.003
		c0-0.089,0.089-0.161,0.178-0.161c0.09,0,0.179,0.072,0.179,0.161v0.784h-0.356V607.003z M-531.439,601.521v-13.381
		c0-0.827,0.543-0.993,1.128-0.408l14.326,14.294c0.585,0.585,0.388,1.128-0.439,1.128h-13.383
		C-530.634,603.154-531.439,602.349-531.439,601.521z M-531.439,606.316c0-0.133,0.045-0.24,0.179-0.24
		c0.133,0,0.178,0.107,0.178,0.24v1.471h-0.356V606.316z M-533.578,607.003c0-0.089,0.09-0.161,0.179-0.161s0.178,0.072,0.178,0.161
		v0.784h-0.356V607.003z M-536.073,604.937h1.472c0.133,0,0.241,0.044,0.241,0.178c0,0.133-0.108,0.179-0.241,0.179h-1.472V604.937z
		 M-536.073,602.798h0.785c0.089,0,0.16,0.089,0.16,0.178s-0.071,0.179-0.16,0.179h-0.785V602.798z M-536.073,600.303h1.472
		c0.133,0,0.241,0.224,0.241,0.356c0,0.134-0.108,0.356-0.241,0.356h-1.472V600.303z M-536.073,598.164h0.785
		c0.089,0,0.16,0.09,0.16,0.179s-0.071,0.178-0.16,0.178h-0.785V598.164z M-536.073,596.025h1.472c0.133,0,0.241,0.045,0.241,0.179
		c0,0.133-0.108,0.178-0.241,0.178h-1.472V596.025z M-536.073,593.888h0.785c0.089,0,0.16,0.09,0.16,0.178
		c0,0.089-0.071,0.178-0.16,0.178h-0.785V593.888z M-536.073,591.392h1.472c0.133,0,0.241,0.224,0.241,0.357
		c0,0.133-0.108,0.355-0.241,0.355h-1.472V591.392z M-536.073,589.254h0.785c0.089,0,0.16,0.089,0.16,0.178s-0.071,0.179-0.16,0.179
		h-0.785V589.254z M-536.073,587.115h1.472c0.133,0,0.241,0.045,0.241,0.179c0,0.133-0.108,0.178-0.241,0.178h-1.472V587.115z
		 M-536.073,584.977h0.785c0.089,0,0.16,0.089,0.16,0.179c0,0.089-0.071,0.178-0.16,0.178h-0.785V584.977z M-536.073,582.838h1.472
		c0.133,0,0.241,0.045,0.241,0.178c0,0.134-0.108,0.179-0.241,0.179h-1.472V582.838z M-536.073,580.699h0.785c0.089,0,0.16,0,0.16,0
		s-0.071,0-0.16,0H-536.073L-536.073,580.699z"/>
</g>
</svg>
